<?xml version="1.0" encoding="utf-8"?>
<!-- Generator: Adobe Illustrator 18.0.0, SVG Export Plug-In . SVG Version: 6.00 Build 0)  -->
<!DOCTYPE svg PUBLIC "-//W3C//DTD SVG 1.1//EN" "http://www.w3.org/Graphics/SVG/1.1/DTD/svg11.dtd">
<svg version="1.1" id="Calque_1" xmlns="http://www.w3.org/2000/svg" xmlns:xlink="http://www.w3.org/1999/xlink" x="0px" y="0px"
	 width="44px" height="63px" viewBox="0 0 44 63" enable-background="new 0 0 44 63" xml:space="preserve">
<g>
	<path id="base" fill="#006591" d="M44,21.9C44,9.7,34.1,0,21.9,0S0.1,10,0.1,22.2c0,4.6,1.7,9.1,3.9,12.6c0,0,16.4,26.7,18.2,26.7
		c1.9,0,18.1-27.4,18.1-27.4C42.7,30.7,44,26.4,44,21.9z"/>
	<path id="top-shadow" opacity="0.2" enable-background="new    " d="M21.9,2.2c11.9,0,21.6,9.2,22.1,21c0-0.4,0-0.9,0-1.3
		C44,9.7,34.1,0,21.9,0S0.1,10,0.1,22.2c0,0.4,0,0.8,0.1,1.1C0.7,11.6,10,2.2,21.9,2.2z"/>
	<circle id="center-shadow" opacity="0.4" enable-background="new    " cx="21.9" cy="23.1" r="15.5"/>
</g>
<g id="base_2_">
	<path fill="#FFFFFF" d="M33.8,29c0-0.2-0.1-0.5-0.1-0.7c-0.1-0.8-0.5-1.6-1.1-2.2c-0.9-1-1.9-1.5-3.2-1.5c-0.2,0-0.4,0-0.5,0.1
		c-0.2,0-0.5-0.2-0.5-0.5c0-0.3,0.1-0.7,0.1-1c0-0.4,0-0.9,0.1-1.3c0.1-0.3,0.1-0.6-0.1-0.8c0-0.1,0-0.1,0-0.2
		c0.3,0,0.5,0.1,0.7,0.1c0,0,0,0,0,0c-0.2-0.1-0.3-0.3-0.5-0.4c0.1-0.1,0.1-0.2,0.2-0.3c0.2-0.4,0.1-0.7-0.3-0.9
		c-0.4-0.2-0.8-0.3-1.2-0.5c-0.4-0.1-0.7-0.4-0.9-0.6c-0.4-0.4-0.8-0.7-1.2-1.1c-0.2-0.2-0.3-0.3-0.4-0.6c-0.2-0.4-0.3-0.9-0.4-1.4
		c0-0.1,0-0.2,0.1-0.3c0-0.1,0.1-0.1,0.2-0.1c0.4-0.3,0.8-0.6,1-1.1c0-0.1,0.1-0.1,0.2-0.1c0.1,0,0.2,0.1,0.3,0.1
		c0.2,0.1,0.2,0,0.2-0.1c0-0.2,0-0.5,0-0.7c0-1-0.5-1.7-1.4-2.2c-0.2-0.1-0.4-0.1-0.7-0.1c-0.3,0.1-0.6,0.3-0.8,0.5
		c-0.1,0.2-0.1,0.4-0.1,0.5c0,0.1,0,0.2-0.1,0.4c-0.2,0-0.3-0.1-0.5-0.1c-0.3,0-0.5,0.2-0.4,0.6c0,0.1,0,0.1,0.1,0.2
		c0,0-0.1,0-0.1,0c-0.3-0.2-0.6-0.4-0.8-0.5c0,0,0-0.1,0-0.1c0-0.2,0-0.3-0.2-0.4c-0.1,0-0.2-0.1-0.2-0.1c-0.3-0.1-0.6-0.1-0.9-0.1
		c-0.3,0-0.4,0-0.4,0.3c0,0,0,0,0,0c-0.1,0-0.2,0-0.4,0c-0.3,0-0.6,0-0.8,0.3c0,0,0,0-0.1,0c-0.2,0.1-0.4,0.3-0.6,0.4
		c-0.1,0.1-0.2,0.2-0.3,0.3c-0.2,0.6-0.5,1.2-0.7,1.9c-0.1,0.3,0,0.6,0.3,0.7c0,0,0.1,0,0.1,0c0.1,0.1,0.1,0.1,0,0.2
		c0,0-0.1,0.1-0.1,0.1c-0.4,0.4-0.9,0.9-1.3,1.3c-0.1,0.1-0.1,0.1-0.2,0.2c0.3,0.5,0.3,0.7,0,1.1c0,0,0,0,0,0
		c-0.1,0.2-0.3,0.4-0.4,0.6c0,0.1-0.1,0.2,0,0.2c0,0,0.1,0.1,0.2,0.1c0.1,0,0.1,0,0.2-0.1c0.5,1,0.6,1.1,1.2,1.7
		c0.3,0.2,0.5,0.5,0.8,0.7c0.3,0.3,0.5,0.6,0.7,1c0.1,0.1,0.1,0.2,0.2,0.3c0.4,0.3,0.4,0.8,0,1.2c-0.1,0.1-0.3,0.3-0.4,0.4
		c-0.1,0.1-0.1,0.1-0.2,0c-0.5-0.2-1-0.4-1.5-0.5c-0.4-0.1-0.8-0.2-1.2-0.3c-0.7-0.1-1.3,0.1-1.9,0.4c-1.9,0.8-3,2.9-2.8,4.6
		c0.1,1.1,0.5,2,1.4,2.7c0.4,0.3,0.8,0.6,1.2,0.9c0,0,0.1,0,0.2,0.1c0.4,0.1,0.9,0.3,1.3,0.4c0.1,0,0.1,0,0.2,0c0.2,0,0.4,0,0.6-0.1
		c0.4-0.1,0.8-0.1,1.1-0.2c0.9-0.3,1.6-0.9,2.1-1.6c0.1-0.1,0.2-0.2,0.3-0.3c0.1-0.1,0.3-0.2,0.5-0.2c0.1,0,0.1,0,0.1,0.1
		c0,0.2,0,0.3,0,0.5c0,0.4,0,0.5,0.5,0.5c0,0,0,0,0,0c0.4,0,0.8-0.1,1.1-0.2c0.2,0.1,0.3,0.2,0.5,0.2c0.3,0,0.5,0,0.8,0
		c0,0,0.1,0,0.1,0c0.3-0.2,0.6-0.3,0.9-0.5c0.1-0.1,0.2-0.1,0.2-0.2c0-0.2-0.1-0.3-0.3-0.3c-0.4-0.1-0.9-0.2-1.3-0.4
		C22,30.2,21.9,30,22,29.8c0.1-0.2,0.1-0.5,0-0.8c-0.1-0.3,0-0.5,0.2-0.7c1-1.1,2.1-2.3,3.1-3.4c0.5-0.5,1-1.1,1.5-1.6
		c0.1-0.2,0.2-0.1,0.3,0c0.2,0.5,0.3,0.9,0.4,1.4c0.1,0.2,0,0.4-0.2,0.5c-0.3,0.2-0.5,0.4-0.7,0.6c-1.2,1.3-1.5,2.8-1.1,4.4
		c0.5,2.1,2.3,3.2,4.2,3.3c0.9,0,1.7-0.3,2.4-0.9c0.4-0.3,0.7-0.7,1.1-1c0,0,0.1-0.1,0.1-0.1c0.2-0.8,0.4-1.5,0.7-2.3
		C33.8,29.2,33.8,29.1,33.8,29z M18.7,27.7c0,0,0,0.1,0,0.1c-0.3,0.1-0.5,0.3-0.8,0.4c0,0-0.1,0-0.2,0c-0.1-0.1-0.2-0.2-0.4-0.3
		c0.2,0,0.3-0.1,0.4-0.1C18.1,27.7,18.4,27.7,18.7,27.7C18.7,27.6,18.7,27.7,18.7,27.7z M17.5,26.9C17.5,26.9,17.5,26.9,17.5,26.9
		c0.1,0,0.2,0,0.3,0c0.1,0,0.1,0,0.2,0c0.3,0.1,0.5,0.2,0.8,0.4c-0.1,0.2-0.2,0.3-0.3,0.3c-0.5,0.1-1,0.2-1.5,0.3c0,0-0.1,0-0.2,0
		c0,0,0-0.1,0.1-0.1c0.2-0.1,0.5-0.2,0.7-0.4c0.2-0.1,0.3-0.1,0.5-0.2c0,0,0,0,0,0c-0.2,0-0.4,0.1-0.6,0.1c0-0.1,0-0.1,0-0.2
		c-0.1,0.1-0.1,0.1-0.2,0.1c-0.2,0.1-0.4,0.2-0.6,0.4c0,0-0.1,0-0.1,0c0,0,0-0.1,0-0.1c0.2-0.2,0.4-0.4,0.6-0.6
		c0.1-0.1,0.2-0.1,0.2-0.1C17.4,26.7,17.4,26.8,17.5,26.9z M17.3,28.3c0,0.1-0.1,0.1-0.1,0.1c-0.2,0-0.5,0-0.7,0
		c0-0.1,0-0.2,0.1-0.2c0.2,0,0.4,0,0.6,0C17.3,28.2,17.3,28.2,17.3,28.3z M15.6,24.9c0.1,0,0.2,0,0.2,0.2c0,0.1,0,0.2,0,0.4
		c0,0,0,0.1,0,0.1c0-0.1,0.1-0.3,0.1-0.4c0.1-0.2,0.1-0.2,0.3-0.2c0.2,0.1,0.5,0.2,0.7,0.3c0.1,0.1,0.2,0.2,0.1,0.3
		c-0.1,0.1-0.1,0.2-0.1,0.3c0.1-0.1,0.3-0.2,0.4-0.3c0.1,0.4-0.2,0.8-0.6,0.8c0-0.1,0.1-0.2,0.1-0.3c-0.2,0.2-0.4,0.4-0.7,0.5
		c0-0.2,0-0.3,0.1-0.4c-0.1,0.1-0.2,0.1-0.2,0.1c0-0.2,0-0.3,0-0.4c0,0,0,0,0,0c-0.1,0.3-0.1,0.6-0.2,0.9c-0.2-0.2-0.2-0.4-0.2-0.6
		c0-0.3,0-0.7,0-1C15.3,24.8,15.5,24.9,15.6,24.9z M16.1,30c0.1,0.2,0.2,0.4,0.3,0.6c0.1,0.2,0.1,0.2-0.1,0.4
		c-0.1,0-0.3-0.1-0.3-0.3c0-0.2-0.1-0.5-0.1-0.7c0,0,0-0.1,0.1-0.1C16.1,29.9,16.1,29.9,16.1,30z M17,31.6c-0.1-0.1-0.2-0.3-0.3-0.4
		c0,0.1,0,0.2,0,0.3c0,0.1-0.1,0.2-0.2,0.3c-0.1,0-0.2,0-0.3-0.1c-0.1,0.1-0.2,0.2-0.4,0.2c-0.1,0-0.3-0.1-0.4-0.1
		c0,0.2-0.1,0.2-0.3,0.2c-0.1,0-0.2,0-0.2-0.1c0-0.1,0-0.2-0.1-0.3c-0.1,0.1-0.2,0.2-0.2,0.3c-0.1,0.1-0.2,0.1-0.3-0.1
		c0-0.1,0-0.2,0-0.3c0-0.1,0-0.1,0-0.2c-0.1,0.2-0.2,0.3-0.4,0.5c-0.1-0.1-0.2-0.2-0.3-0.3c0,0-0.1-0.1-0.1-0.1
		c-0.3,0-0.5-0.1-0.4-0.4c0-0.1,0-0.1,0.1-0.2c-0.2,0-0.3,0.3-0.5,0.1c-0.2-0.1-0.2-0.3-0.1-0.5c-0.1,0-0.1,0-0.2,0
		c-0.2,0-0.2-0.1-0.2-0.2c0-0.1,0-0.2-0.2-0.3c-0.2-0.1-0.2-0.2-0.1-0.4c0-0.1,0.1-0.1,0.1-0.2c-0.1,0-0.1,0-0.2-0.1
		c-0.1-0.1-0.2-0.2-0.2-0.4c0-0.1,0.1-0.2,0.3-0.2c0.2,0,0.4-0.1,0.5-0.1c0,0,0,0,0,0c-0.2,0-0.4,0-0.6,0c-0.2,0-0.2-0.1-0.2-0.3
		c0-0.1,0.1-0.2,0.2-0.2c0.3,0,0.5,0,0.8,0c0,0,0.1,0,0.1,0c-0.2,0-0.5-0.1-0.7-0.1c0,0-0.1,0-0.1,0c-0.1,0-0.2-0.1-0.2-0.2
		c0-0.1,0.1-0.2,0.1-0.3c0.1,0,0.2,0,0.3,0c0.1,0,0.3,0.1,0.4,0.1c0,0,0.1,0,0.1,0c0,0,0,0,0,0c0,0-0.1,0-0.1-0.1
		c-0.2-0.1-0.3-0.1-0.5-0.2c-0.1,0-0.2-0.1-0.1-0.2c0-0.1,0.1-0.2,0.2-0.3c0,0,0.1,0,0.1,0c-0.1-0.2,0-0.4,0.2-0.5
		c0.2-0.2,0.3-0.2,0.4,0c0.3,0.2,0.5,0.5,0.8,0.7c0.1,0,0.1,0.1,0.2,0.1c0,0,0,0,0,0c-0.1-0.1-0.2-0.2-0.3-0.2
		c-0.2-0.2-0.3-0.3-0.5-0.5c-0.1-0.1-0.1-0.1-0.2-0.2c-0.1-0.1-0.2-0.2,0-0.3c0.1-0.1,0.2,0,0.3,0.1c0,0,0.1,0.1,0.1,0.1
		c0,0,0,0,0,0c0-0.1,0-0.1-0.1-0.2c-0.1-0.1-0.1-0.2,0.1-0.3c0.1-0.1,0.2-0.1,0.3,0c0,0.1,0.1,0.1,0.1,0.2c0,0,0,0,0.1,0.1
		c0-0.1,0-0.2,0-0.3c0-0.1,0-0.2,0.1-0.2c0.2-0.1,0.3-0.1,0.4,0.2c0,0.1,0.1,0.2,0.1,0.3c0,0,0,0,0,0c0-0.1,0-0.3,0-0.4
		c0-0.1,0.1-0.2,0.3-0.2c0.1,0,0.2,0,0.2,0.2c0,0.2,0,0.4,0.1,0.5c0,0.3,0.1,0.7,0.1,1c0,0.1,0,0.2-0.1,0.3c-0.1,0.2-0.2,0.2-0.4,0
		c0,0,0,0-0.1-0.1c0,0.1,0,0.2-0.1,0.2c0,0-0.1,0.1-0.1,0.1c0,0-0.1,0-0.1-0.1c-0.1-0.3-0.2-0.7-0.4-1c0-0.1-0.1-0.2-0.2-0.3
		c0,0.2,0.1,0.4,0.1,0.5c0,0,0,0,0,0c-0.2-0.1-0.3-0.3-0.5-0.4c0,0,0,0,0,0c0.2,0.3,0.4,0.6,0.7,1c-0.1,0-0.1,0.1-0.1,0.1
		c0.1,0.2,0.3,0.3,0.3,0.5c0,0.2-0.1,0.3-0.1,0.5c-0.2-0.1-0.4-0.3-0.5-0.4c-0.2-0.1-0.3-0.2-0.5-0.4c0,0.1,0.1,0.3,0.1,0.4
		c-0.1,0-0.1,0.1-0.2,0.1c0.2,0.1,0.3,0.2,0.5,0.4c-0.2,0.1-0.4,0.1-0.6,0.2c0,0,0,0,0,0c0.2,0,0.4,0,0.7,0c0,0,0.1,0,0.1,0
		c0.3,0,0.4,0.1,0.3,0.4c0,0,0,0,0,0.1c-0.1,0.1-0.3,0.2-0.4,0.2c-0.5,0-0.9,0.1-1.4,0.2c-0.1,0-0.1,0-0.2,0.1c0.5,0,1-0.1,1.6-0.1
		c0,0,0,0,0,0c-0.2,0.1-0.4,0.2-0.7,0.3c-0.2,0.1-0.4,0.2-0.7,0.3c0,0,0,0,0,0c0.2-0.1,0.4-0.1,0.6-0.2c0.1,0,0.2-0.1,0.2,0.1
		c0.1,0,0.1-0.1,0.2-0.1c0.3-0.2,0.7-0.2,0.9,0c0.2,0.1,0.3,0.4,0.2,0.7c-0.1,0.2-0.2,0.5-0.3,0.8c0.3-0.2,0.5-0.5,0.6-0.8
		c0,0,0,0,0,0c0.1-0.4,0.1-0.4,0.5-0.3c0.1,0,0.2,0.1,0.2,0.2c0,0.1-0.1,0.2-0.1,0.3c-0.1,0-0.2-0.1-0.2-0.1c0,0.4-0.1,0.8,0.1,1.1
		c0.2,0,0.3-0.1,0.5-0.1c0.1,0,0.2,0.2,0.3,0.3c0-0.1,0-0.1,0.1-0.2c0-0.1,0.1-0.2,0.2-0.2c0.3,0,0.6-0.1,0.9,0.1
		C17.2,31.3,17.1,31.5,17,31.6z M18.6,30c-0.1,0.1-0.2,0.1-0.4,0.1c0.1,0.3,0.1,0.5,0,0.6c-0.3,0.2-0.4,0-0.7-0.2
		c0.1,0.1,0.1,0.2,0.1,0.3c-0.2,0.1-0.4,0.1-0.5,0c-0.1-0.1-0.3-0.2-0.4-0.3c-0.2-0.2-0.4-0.5-0.6-0.8c0,0,0,0,0,0
		c0.1,0,0.2,0.1,0.4,0.1c0,0,0,0,0,0c-0.1-0.1-0.2-0.2-0.3-0.4c-0.1-0.1-0.1-0.2,0-0.3c0.1-0.1,0.2-0.1,0.3,0c0.3,0.2,0.7,0.5,1,0.7
		c0,0,0,0,0,0c-0.2-0.2-0.4-0.4-0.6-0.6c0,0,0,0,0-0.1c0.1,0,0.1,0,0.2,0c0.5,0.1,0.9,0.3,1.3,0.5C18.6,29.7,18.6,29.8,18.6,30z
		 M18.4,29.4c-0.1-0.1-0.2-0.1-0.4-0.2c0,0,0-0.1-0.1-0.1c0,0,0.1,0,0.1,0c0.1,0,0.3,0,0.4,0.1c0.1,0,0.1,0.1,0.2,0.2
		C18.6,29.5,18.5,29.5,18.4,29.4z M19.9,30.1c-0.1,0.2-0.3,0.3-0.5,0.3c0.1-0.3,0.2-0.6,0.3-1C19.9,29.5,20,29.9,19.9,30.1z
		 M32.7,28.2c0,0.1,0.1,0.2,0,0.2c0,0.1-0.1,0.1-0.2,0.1c-0.1,0-0.2,0-0.3,0c-0.1,0-0.2,0-0.3,0c0,0-0.1,0-0.1-0.1
		c0,0,0-0.1,0.1-0.1c0.2-0.1,0.4-0.2,0.6-0.2C32.5,28.2,32.7,28.2,32.7,28.2z M32.4,27.4C32.4,27.4,32.5,27.4,32.4,27.4
		c0.1,0.1,0.1,0.3,0.2,0.4c0,0,0,0.1-0.1,0.1c-0.5,0.3-1,0.5-1.5,0.6c0,0-0.1,0-0.1,0c0,0,0-0.1,0.1-0.1
		C31.5,28.1,31.9,27.8,32.4,27.4z M31.1,25.9c0.1,0.1,0.2,0.2,0.4,0.3c-0.1,0.2-0.3,0.4-0.4,0.6c0,0,0,0,0,0
		c0.2-0.1,0.4-0.3,0.6-0.4c0,0,0,0,0.1,0.1c0.2,0.2,0.3,0.4,0.5,0.6c0.1,0.1,0.1,0.2,0,0.3c0,0,0,0.1-0.1,0.1
		c-0.6,0.4-1.1,0.8-1.7,1.1c-0.1-0.1-0.1-0.2-0.1-0.3c0.1-0.1,0.1-0.2,0.2-0.3c-0.1,0-0.1-0.1-0.1-0.1c0-0.1,0-0.1,0.1-0.2
		c0.1-0.1,0.1-0.2,0.2-0.4c0.1-0.2,0.3-0.5,0.2-0.8C31,26.4,31.1,26.2,31.1,25.9z M30.6,25.7c0.2-0.1,0.4,0.1,0.4,0.3
		c-0.1,0.6-0.2,1.2-0.7,1.6c0,0,0,0-0.1,0.1c0-0.3,0-0.6,0.1-0.9C30.4,26.4,30.5,26.1,30.6,25.7C30.6,25.8,30.6,25.7,30.6,25.7z
		 M30,25.7c0.1,0,0.3,0,0.4,0.1c-0.2,0.8-0.4,1.5-0.6,2.2c-0.2-0.2-0.1-0.4-0.1-0.6c0.1-0.5,0.1-1.1,0.2-1.6
		C29.9,25.7,29.9,25.6,30,25.7z M29.1,25.6c0,0.1,0,0.2,0,0.3c0,0.1,0,0.2,0.1,0.3c0,0,0,0,0,0c0-0.1,0.1-0.3,0.1-0.4
		c0-0.1,0-0.2,0.2-0.2c0.1,0,0.2,0,0.2,0.1c0,0.1,0,0.1,0,0.2c-0.1,0.6-0.2,1.1-0.2,1.7c0,0-0.1,0.1-0.1,0.1c0,0-0.1-0.1-0.1-0.1
		c0-0.3,0-0.6,0-1c0-0.1,0-0.2,0-0.3c0,0,0,0,0,0c0,0.1-0.1,0.1-0.1,0.2C28.9,26.1,28.8,25.8,29.1,25.6z M21.4,28.3
		c-0.1-0.2-0.1-0.3-0.1-0.5c0.2-1.1,0.5-2.2,0.7-3.4c0-0.2,0.2-0.4,0.4-0.4c1-0.2,2-0.5,3-0.8c0.1,0,0.2,0,0.3,0c0,0,0,0,0,0
		C24.2,25,22.8,26.6,21.4,28.3z M26.5,22.2c-1,0.1-2,0.5-2.9,0.8c-0.3,0.1-0.6,0.2-0.8,0.2c-0.1,0-0.2,0-0.3,0
		c0.2-0.3,0.3-0.6,0.5-0.9c0.1-0.1,0.2-0.3,0.2-0.4c0.2-0.4,0.1-0.7-0.2-1.1c-0.2-0.3-0.5-0.5-0.8-0.6c-0.4-0.2-0.8-0.5-1.2-0.9
		c-0.2-0.2-0.1-0.4,0.1-0.5c0,0,0.1,0,0.1-0.1c0.4-0.2,0.8-0.4,1.2-0.8c0.2,0.2,0.4,0.4,0.6,0.5c0.4,0.4,1,0.6,1.5,0.8
		c0.2,0.1,0.5,0.2,0.7,0.4c0.3,0.2,0.5,0.4,0.6,0.8c0.2,0.4,0.3,0.4,0.6,0.4c0,0,0,0,0,0.1c0.1,0.3,0.2,0.6,0.3,1
		C26.7,22.1,26.6,22.2,26.5,22.2z M26.7,20.2c-0.1-0.3-0.3-0.5-0.6-0.6c-1-0.4-1.8-1.1-2.5-2c-0.1-0.1-0.1-0.2-0.1-0.3
		c0.2,0,0.3,0.1,0.4,0.2c0.3,0.5,0.7,0.9,1.3,1.1c0.5,0.2,1,0.4,1.4,0.6c0.2,0.1,0.3,0.2,0.4,0.3c0.2,0.1,0.3,0.3,0.4,0.5
		c0.1,0.1,0.1,0.3,0.1,0.4c-0.2,0-0.3,0-0.5,0C26.9,20.4,26.8,20.3,26.7,20.2z M27.4,22.2c-0.1-0.1-0.2-0.1-0.2-0.2
		c-0.1-0.2-0.2-0.5-0.3-0.8c0.3-0.1,0.6-0.1,0.9-0.2c0.1,0,0.1,0,0.2,0.1c0.2,0.2,0.3,0.6,0.1,0.8c-0.1,0.1-0.3,0.2-0.5,0.3
		C27.5,22.2,27.4,22.2,27.4,22.2z M27.8,22.6C27.8,22.6,27.9,22.5,27.8,22.6c0-0.1,0-0.1-0.1-0.1c0.3-0.3,0.7-0.6,0.6-1.1
		c0.2,0.1,0.2,0.3,0.1,0.5c-0.1,0.2-0.2,0.4-0.3,0.5c0,0.1-0.1,0.1-0.1,0.2c0.4,0.2,0.2,0.6,0.3,0.9c-0.4,0.1-0.7-0.1-0.8-0.4
		C27.4,22.7,27.4,22.7,27.8,22.6z M28.1,27c-0.2-0.1-0.5-0.4-0.5-0.6c0-0.1,0-0.2,0.2-0.3C27.9,26.4,28,26.7,28.1,27z M27,27.1
		c0.1,0,0.1,0,0.2,0.1c0,0,0,0,0,0c-0.1-0.1-0.2-0.2-0.1-0.4c0.1-0.1,0.2-0.2,0.3-0.3c0.2,0.3,0.4,0.6,0.6,0.9c0,0.1,0,0.2,0,0.4
		c-0.2-0.2-0.4-0.3-0.7-0.4c0.1,0.2,0.1,0.3,0.2,0.4c-0.2,0-0.4,0-0.6-0.2c-0.1-0.1-0.1-0.1-0.1-0.2C26.8,27.1,26.8,27.1,27,27.1z
		 M26.5,27.7c0-0.1,0.1-0.1,0.1-0.1c0.5,0.1,0.9,0.2,1.3,0.6c-0.3,0.1-0.5,0.1-0.8,0.1c-0.2-0.1-0.4-0.1-0.7-0.2c0,0-0.1,0-0.1,0
		C26.4,27.9,26.4,27.8,26.5,27.7z M26.2,28.5c0-0.1,0.2-0.3,0.3-0.3c0.4,0.1,0.7,0.1,1.1,0.2c0.1,0,0.2,0.2,0.3,0.3
		c-0.1,0.2-0.3,0.2-0.5,0.2c-0.3-0.1-0.6-0.1-0.9-0.2C26.3,28.8,26.2,28.7,26.2,28.5z M26.2,29.2c0,0,0-0.1,0-0.1
		c0-0.1,0.1-0.1,0.2-0.1c0.4,0.1,0.8,0.1,1.2,0.2c0,0,0.1,0,0.1,0.1c0,0-0.1,0.1-0.1,0.1c-0.4,0.1-0.8,0.1-1.2,0.2
		C26.2,29.4,26.2,29.4,26.2,29.2z M26.2,29.6c0.3,0,0.7,0,1-0.1c0,0,0.1,0,0.1,0.1c0,0,0,0.1-0.1,0.1c-0.3,0.1-0.6,0.3-0.9,0.4
		C26.3,29.9,26.2,29.7,26.2,29.6z M27.6,31.9c0.1-0.2,0.3-0.4,0.4-0.6c0,0,0,0,0,0c-0.2,0.2-0.4,0.3-0.5,0.5
		c-0.1-0.1-0.2-0.2-0.3-0.3c0.1-0.1,0.2-0.3,0.3-0.4c-0.2,0.1-0.4,0.1-0.5,0c-0.1,0-0.1-0.1-0.1-0.1c0-0.1,0.1-0.2,0.2-0.3
		c0.3-0.2,0.6-0.5,0.9-0.7c0.1-0.1,0.2-0.2,0.3-0.2c0,0,0,0,0-0.1c-0.2,0.2-0.5,0.3-0.7,0.5c-0.2,0.2-0.5,0.3-0.7,0.5
		c-0.1-0.1-0.1-0.2-0.2-0.3c-0.1-0.1,0-0.2,0.1-0.2c0.1,0,0.1-0.1,0.2-0.1c0.4-0.2,0.8-0.4,1.3-0.6c0.2-0.1,0.2-0.1,0.3,0.1
		c0,0,0.1,0.1,0.1,0.1c0.3,0.1,0.3,0.3,0.1,0.5c-0.2,0.2-0.4,0.3-0.6,0.5c-0.1,0.1-0.2,0.1-0.2,0.2c0,0,0,0,0.1,0.1
		c0.3-0.2,0.6-0.4,0.9-0.6c0,0,0,0,0,0c-0.1,0.2-0.3,0.5-0.4,0.7c0,0,0,0,0,0c0.1,0,0.2-0.1,0.3-0.1c0,0,0,0,0,0
		c-0.2,0.4-0.3,0.7-0.5,1.1C27.8,32.1,27.7,32,27.6,31.9z M28.3,32.3c-0.1,0-0.2-0.2-0.2-0.3c0.2-0.4,0.4-0.8,0.6-1.2
		c0,0,0,0,0.1-0.1c0,0.1,0,0.1,0,0.2c-0.1,0.4-0.1,0.8-0.2,1.3C28.6,32.2,28.4,32.3,28.3,32.3z M29.2,32.3c0,0.2-0.1,0.2-0.3,0.2
		c-0.1,0-0.2-0.1-0.2-0.3c0.1-0.3,0.1-0.7,0.2-1.1c0-0.2,0.1-0.4,0.1-0.6c0.1-0.3,0.3-0.4,0.6-0.2c0,0,0,0.1,0,0.2
		c-0.1,0.4-0.2,0.8-0.2,1.2C29.3,31.9,29.3,32.1,29.2,32.3z M29.5,32.7c-0.1,0-0.1-0.1-0.1-0.2c0-0.3,0.1-0.6,0.1-0.9
		c0-0.1,0-0.3,0.1-0.4c0,0,0-0.1,0.1-0.1c0,0,0.1,0.1,0.1,0.1c0,0.4,0.1,0.7,0.1,1C29.9,32.5,29.7,32.7,29.5,32.7z M30.9,32.3
		c-0.2,0-0.4,0.1-0.6,0.3c-0.1,0-0.1,0.1-0.2,0.2c0-0.2,0-0.4-0.1-0.5c0-0.3-0.1-0.6-0.1-0.9c0,0,0-0.1,0.1-0.1c0,0,0.1,0.1,0.1,0.1
		c0.1,0.2,0.2,0.5,0.3,0.7c0,0.1,0.1,0.2,0.2,0.3c-0.1-0.5-0.3-1-0.4-1.5c0,0,0,0,0.1,0c0,0,0.1,0.1,0.1,0.1
		c0.3,0.4,0.5,0.8,0.8,1.1C31.1,32.2,31.1,32.3,30.9,32.3z M31.9,30.9c-0.1-0.1-0.2-0.1-0.3-0.2c-0.1-0.1-0.2-0.1-0.3-0.2
		c0.2,0.2,0.3,0.4,0.5,0.5c0.1,0.1,0.1,0.1,0.2,0.2c0.1,0.1,0,0.2-0.1,0.3c-0.1,0.1-0.1,0-0.2-0.1c-0.1-0.1-0.2-0.3-0.4-0.4
		c0.1,0.2,0.2,0.4,0.2,0.6c0,0.1,0,0.2-0.1,0.2c-0.1,0.1-0.1,0.1-0.2,0.2c0-0.1-0.1-0.1-0.1-0.1c-0.4-0.6-0.8-1.2-1.2-1.7
		c-0.1-0.1-0.1-0.2,0-0.3c0.3-0.2,0.3-0.2,0.5,0.1c0.2,0.3,0.4,0.5,0.6,0.8c0,0,0,0,0,0c-0.1-0.2-0.1-0.3-0.2-0.5
		c0.2,0,0.3-0.1,0.4-0.1c0.1,0,0.1,0,0.2,0c0.3,0.1,0.6,0.2,0.8,0.5C32.3,31.1,32.2,31.1,31.9,30.9z M32.6,30.3
		c0,0.1-0.2,0.2-0.3,0.1c-0.4-0.2-0.9-0.4-1.3-0.5c0,0-0.1,0-0.1,0c0-0.1,0-0.1,0.1-0.1c0.5,0.1,0.9,0.2,1.4,0.3
		C32.6,30,32.7,30.2,32.6,30.3z M32.3,29.8c-0.5-0.1-1-0.2-1.5-0.3c0,0-0.1,0-0.1,0c-0.1-0.1-0.2-0.1-0.2-0.2c0-0.2,0.2-0.3,0.3-0.2
		c0.5,0.1,1,0.2,1.5,0.3c0.2,0,0.4,0.2,0.4,0.4C32.7,29.8,32.5,29.8,32.3,29.8z M32.4,29.2C32,29.1,31.6,29,31.2,29c0,0-0.1,0-0.1,0
		c0,0-0.1-0.1-0.1-0.1c0,0,0.1-0.1,0.1-0.1c0.3,0,0.7,0,1,0c0.1,0,0.1,0,0.2,0c0.3,0,0.3,0,0.5,0.3C32.7,29.2,32.6,29.2,32.4,29.2z"
		/>
	<path fill="#FFFFFF" d="M14.1,30.4c-0.2,0.2-0.3,0.5-0.5,0.8C13.9,31,14,30.7,14.1,30.4C14.2,30.4,14.2,30.4,14.1,30.4
		C14.1,30.4,14.1,30.4,14.1,30.4z"/>
	<path fill="#FFFFFF" d="M31.9,26.9c-0.5,0.2-0.7,0.6-1,0.9C31.3,27.6,31.6,27.3,31.9,26.9z"/>
</g>
</svg>
